<svg id="svg" version="1.1" width="523" height="500" xmlns="http://www.w3.org/2000/svg" xmlns:xlink="http://www.w3.org/1999/xlink" style="display: block;"><g id="svgg"><path id="path0" d="M0.000 191.205 L 0.000 382.409 189.628 382.409 L 379.256 382.409 379.785 378.776 C 380.394 374.592,381.610 371.897,383.776 369.937 C 384.853 368.963,385.455 367.100,385.832 363.581 C 386.258 359.604,386.819 358.086,388.622 356.033 C 390.219 354.213,391.118 352.103,391.699 348.805 C 392.714 343.040,395.086 339.285,397.921 338.955 L 400.000 338.713 400.000 295.169 C 400.000 252.736,399.963 251.625,398.531 251.625 C 396.931 251.625,396.591 252.691,395.722 260.421 C 395.109 265.873,394.411 267.935,391.965 271.511 C 390.959 272.983,389.762 275.866,389.306 277.917 C 388.362 282.168,387.216 284.634,385.791 285.478 C 385.250 285.798,384.258 287.948,383.588 290.254 C 382.917 292.561,381.394 295.568,380.204 296.937 C 379.013 298.306,377.619 300.717,377.105 302.295 C 374.678 309.753,362.524 314.437,362.524 307.915 C 362.524 304.690,356.008 305.047,353.357 308.416 C 351.788 310.412,345.854 312.046,340.179 312.046 C 338.545 312.046,336.107 312.626,334.761 313.334 C 333.415 314.043,330.249 315.192,327.725 315.889 C 323.667 317.008,322.959 317.501,321.604 320.145 C 318.584 326.041,316.498 328.801,313.910 330.328 C 312.464 331.181,311.281 332.223,311.281 332.643 C 311.281 334.276,307.449 335.292,297.897 336.192 C 292.428 336.707,284.797 338.007,280.938 339.082 C 277.080 340.156,271.288 341.273,268.067 341.565 C 263.000 342.024,261.815 342.427,259.265 344.558 C 257.644 345.912,254.732 347.419,252.793 347.907 C 250.854 348.396,249.070 349.312,248.828 349.944 C 248.585 350.575,246.792 352.010,244.843 353.132 C 242.895 354.254,240.784 355.832,240.153 356.639 C 239.522 357.445,237.583 359.906,235.843 362.107 C 233.417 365.179,232.551 367.056,232.122 370.177 C 231.234 376.632,229.537 377.820,221.206 377.820 C 214.489 377.820,207.733 376.425,204.518 374.374 C 202.767 373.258,195.361 371.712,191.638 371.685 C 189.469 371.669,185.977 370.260,181.262 367.496 C 180.210 366.879,177.323 365.990,174.845 365.520 C 171.880 364.958,169.772 364.052,168.678 362.873 C 167.764 361.887,165.090 360.359,162.736 359.478 C 160.381 358.597,157.942 357.094,157.316 356.138 C 156.689 355.181,154.771 353.978,153.053 353.463 C 151.335 352.948,149.570 351.857,149.132 351.037 C 148.693 350.218,146.635 348.816,144.559 347.923 C 142.482 347.030,139.931 345.181,138.889 343.816 C 137.848 342.450,135.954 340.902,134.680 340.374 C 133.406 339.846,132.156 338.758,131.901 337.954 C 131.646 337.151,130.259 336.002,128.818 335.400 C 127.377 334.798,125.816 333.465,125.348 332.438 C 124.880 331.411,123.656 330.187,122.629 329.719 C 121.602 329.251,120.277 327.708,119.685 326.290 C 119.092 324.873,117.901 323.528,117.037 323.302 C 116.171 323.075,114.956 321.668,114.326 320.160 C 113.699 318.659,112.309 316.856,111.238 316.154 C 110.167 315.452,108.807 313.942,108.216 312.799 C 107.624 311.656,105.966 309.182,104.531 307.302 C 103.096 305.422,101.516 302.653,101.020 301.149 C 100.523 299.645,99.633 298.229,99.042 298.002 C 97.855 297.546,94.837 292.079,94.837 290.384 C 94.837 289.794,93.814 288.023,92.563 286.449 C 91.311 284.875,90.087 282.332,89.842 280.799 C 88.981 275.420,88.738 274.817,86.488 272.462 C 84.108 269.972,83.834 268.992,82.604 258.562 C 82.066 253.994,81.410 251.654,80.356 250.532 C 75.383 245.238,75.464 187.478,80.456 178.967 C 81.408 177.346,82.445 173.316,83.088 168.744 C 84.349 159.780,85.522 157.522,90.262 154.942 L 93.826 153.003 96.788 154.513 C 98.417 155.343,100.309 156.023,100.992 156.023 C 101.676 156.023,103.754 157.207,105.612 158.654 C 107.502 160.127,110.622 161.651,112.699 162.116 C 117.173 163.119,120.507 164.757,121.072 166.229 C 121.301 166.826,123.322 167.745,125.563 168.271 C 130.204 169.360,132.050 170.175,134.226 172.096 C 135.093 172.862,138.240 173.845,141.491 174.366 C 147.313 175.298,152.964 177.205,152.964 178.237 C 152.964 179.934,166.331 181.266,185.468 181.476 C 200.646 181.643,200.793 181.661,204.349 183.751 C 206.320 184.910,210.506 186.350,213.651 186.952 C 216.796 187.554,220.862 188.837,222.687 189.803 C 225.858 191.483,226.710 191.557,242.065 191.488 C 265.059 191.384,265.061 191.382,264.286 174.904 C 263.409 156.299,263.239 155.239,260.742 152.906 C 259.514 151.759,258.509 150.449,258.509 149.995 C 258.509 149.542,257.157 148.481,255.505 147.638 C 253.853 146.796,252.291 145.443,252.033 144.632 C 251.776 143.821,250.746 142.621,249.744 141.964 C 248.592 141.210,247.485 139.266,246.732 136.677 C 244.486 128.949,251.592 129.690,175.563 129.254 C 104.201 128.845,106.304 128.970,106.314 125.145 C 106.324 121.510,108.117 117.351,110.693 114.992 C 112.174 113.635,113.779 111.729,114.259 110.756 C 114.739 109.783,115.869 108.660,116.770 108.262 C 117.671 107.863,118.954 106.392,119.621 104.994 C 120.287 103.595,121.702 102.121,122.763 101.717 C 123.824 101.314,125.026 100.108,125.432 99.039 C 125.839 97.969,127.366 96.389,128.826 95.528 C 130.286 94.666,131.681 93.331,131.925 92.561 C 132.170 91.791,133.520 90.615,134.925 89.948 C 136.330 89.282,138.044 87.876,138.732 86.825 C 139.421 85.774,141.442 84.175,143.223 83.272 C 145.005 82.369,147.593 80.644,148.975 79.438 C 150.357 78.233,151.991 77.247,152.606 77.247 C 153.221 77.247,155.016 76.094,156.594 74.686 C 158.173 73.277,161.111 71.505,163.123 70.748 C 165.135 69.991,167.028 68.956,167.330 68.449 C 168.184 67.013,170.541 66.026,175.526 65.018 C 178.050 64.508,180.803 63.480,181.644 62.734 C 184.277 60.398,186.183 59.753,192.924 58.915 C 197.305 58.371,200.603 57.468,202.899 56.185 C 208.181 53.232,216.423 52.581,243.517 52.973 C 268.001 53.328,271.263 53.708,275.270 56.670 C 276.671 57.705,279.397 58.333,284.634 58.829 C 292.066 59.531,294.316 60.234,297.132 62.734 C 297.973 63.481,300.890 64.656,303.614 65.344 C 306.337 66.032,309.343 67.326,310.293 68.219 C 311.243 69.111,313.833 70.473,316.049 71.244 C 318.264 72.015,320.765 73.466,321.606 74.468 C 322.447 75.469,324.444 76.709,326.042 77.222 C 327.641 77.736,329.362 78.841,329.866 79.679 C 330.371 80.518,332.737 82.198,335.124 83.414 C 337.512 84.629,339.666 86.258,339.912 87.033 C 340.158 87.809,341.545 89.008,342.994 89.699 C 344.443 90.390,346.149 91.961,346.784 93.189 C 347.419 94.418,348.805 95.640,349.864 95.906 C 350.932 96.174,352.322 97.420,352.986 98.706 C 353.645 99.979,355.045 101.349,356.097 101.749 C 357.178 102.160,358.486 103.617,359.106 105.102 C 359.710 106.546,360.873 107.940,361.691 108.200 C 362.508 108.460,363.925 109.939,364.839 111.487 C 365.752 113.036,367.183 114.781,368.019 115.367 C 369.671 116.524,372.467 122.390,372.467 124.699 C 372.467 128.889,370.668 129.253,349.951 129.266 C 329.102 129.279,329.339 129.238,328.617 132.947 C 328.018 136.026,320.933 145.772,318.209 147.266 C 311.009 151.215,310.516 152.700,310.516 170.454 C 310.516 187.916,310.782 189.139,314.867 190.488 C 320.307 192.283,346.886 191.816,351.071 189.851 C 352.974 188.957,357.501 187.564,361.130 186.756 C 365.036 185.885,368.404 184.656,369.385 183.741 C 372.637 180.712,388.613 180.119,394.539 182.808 C 396.372 183.640,398.351 184.321,398.936 184.321 C 399.839 184.321,400.000 170.355,400.000 92.161 L 400.000 0.000 200.000 0.000 L 0.000 0.000 0.000 191.205 M282.218 92.276 C 275.858 92.946,274.617 93.440,271.523 96.535 C 269.772 98.285,267.845 100.674,267.240 101.844 C 266.636 103.013,265.456 104.336,264.619 104.784 C 261.974 106.200,262.345 122.493,265.076 124.862 C 266.165 125.805,267.525 127.698,268.099 129.068 C 268.687 130.472,270.008 131.888,271.128 132.314 C 272.340 132.774,273.581 134.189,274.312 135.942 C 274.971 137.522,276.158 139.728,276.952 140.844 C 278.486 143.004,278.569 145.755,279.468 224.346 C 279.749 248.862,279.586 248.138,285.012 248.999 C 289.994 249.789,290.841 247.880,291.142 235.194 C 291.275 229.601,291.681 224.220,292.044 223.236 C 292.428 222.201,292.403 220.351,291.986 218.840 C 291.589 217.405,291.507 214.989,291.801 213.469 C 292.096 211.950,292.287 208.606,292.226 206.037 C 292.165 203.468,292.436 200.521,292.829 199.488 C 293.222 198.455,293.791 184.725,294.094 168.977 C 294.691 137.907,295.010 135.577,298.948 133.480 C 307.145 129.114,309.872 120.119,307.364 105.718 C 306.606 101.360,306.218 100.624,303.985 99.307 C 302.599 98.489,300.920 96.990,300.256 95.976 C 298.530 93.342,289.561 91.502,282.218 92.276 M250.051 211.389 C 249.858 211.582,245.573 212.595,240.529 213.639 C 235.484 214.683,229.943 216.242,228.214 217.104 C 226.270 218.073,221.705 219.083,216.248 219.751 C 208.460 220.705,207.080 221.102,204.478 223.137 C 202.856 224.405,200.553 225.669,199.358 225.946 C 191.676 227.728,187.145 238.660,188.937 251.090 C 190.106 259.200,190.217 259.549,192.405 261.997 C 193.509 263.233,195.084 265.707,195.904 267.495 C 196.724 269.283,197.911 270.746,198.541 270.746 C 199.171 270.746,200.589 271.648,201.691 272.750 C 203.469 274.528,208.720 277.336,209.110 276.718 C 209.191 276.588,209.833 275.561,210.536 274.437 C 211.239 273.312,212.597 272.151,213.555 271.856 C 214.513 271.562,216.337 270.202,217.608 268.833 C 219.303 267.008,221.088 266.083,224.300 265.364 C 226.709 264.825,228.681 264.164,228.681 263.896 C 228.681 262.608,222.599 257.708,219.907 256.827 C 218.236 256.279,216.509 255.110,216.070 254.228 C 215.632 253.347,214.254 251.749,213.009 250.678 C 207.924 246.304,209.639 233.969,215.926 229.702 C 217.683 228.509,219.465 227.119,219.885 226.612 C 222.478 223.488,232.012 223.133,235.457 226.031 C 244.223 233.407,264.650 229.967,264.617 221.121 C 264.596 215.719,264.181 215.237,257.870 213.288 C 250.198 210.920,250.458 210.983,250.051 211.389 M316.099 212.916 C 309.967 214.227,307.075 218.949,309.519 223.661 C 310.187 224.949,310.980 226.519,311.281 227.150 C 313.196 231.158,331.202 230.441,337.596 226.101 C 341.715 223.307,349.448 223.184,352.135 225.870 C 353.113 226.848,354.944 228.075,356.204 228.597 C 357.464 229.119,358.963 230.470,359.534 231.599 C 360.106 232.728,361.356 234.625,362.313 235.814 C 364.799 238.902,364.791 246.009,362.300 249.081 C 361.335 250.270,359.989 252.131,359.308 253.216 C 358.623 254.308,356.500 255.789,354.561 256.530 C 352.631 257.267,351.052 258.178,351.052 258.554 C 351.052 260.300,346.854 261.596,337.741 262.662 C 331.135 263.435,327.456 264.215,326.552 265.032 C 324.301 267.070,316.501 267.775,293.308 268.037 C 262.360 268.388,257.974 268.790,255.067 271.544 C 253.353 273.168,251.540 273.916,247.900 274.499 C 245.221 274.928,242.166 275.894,241.112 276.645 C 236.635 279.838,235.103 280.681,233.768 280.684 C 231.043 280.692,213.686 299.148,213.129 302.629 C 212.860 304.309,211.689 307.029,210.527 308.673 C 207.775 312.566,207.518 323.910,210.115 326.819 C 211.643 328.530,212.907 331.461,213.717 335.174 C 213.969 336.327,215.757 338.853,217.691 340.787 L 221.208 344.304 223.606 341.916 C 231.165 334.388,233.060 332.936,236.610 331.950 C 238.657 331.382,241.113 330.137,242.067 329.183 C 243.021 328.229,245.303 327.063,247.140 326.593 C 248.976 326.122,250.858 325.612,251.323 325.459 C 251.796 325.304,252.406 322.253,252.707 318.551 C 253.288 311.394,254.216 308.493,256.139 307.829 C 256.811 307.597,258.050 306.312,258.891 304.973 C 260.015 303.185,261.456 302.227,264.319 301.364 C 266.463 300.718,268.712 299.780,269.316 299.279 C 272.141 296.934,275.577 296.491,295.602 295.888 C 316.649 295.254,319.083 294.966,326.719 292.214 C 329.110 291.352,334.088 290.162,337.782 289.571 C 341.476 288.980,344.627 288.108,344.784 287.635 C 345.211 286.356,348.702 284.766,352.452 284.143 C 354.354 283.827,356.796 282.696,358.188 281.488 C 361.275 278.807,363.529 277.629,365.568 277.629 C 366.546 277.629,367.683 276.759,368.448 275.426 C 369.143 274.215,370.841 272.616,372.221 271.873 C 373.600 271.130,374.929 269.893,375.173 269.124 C 375.417 268.355,376.628 267.005,377.866 266.125 C 379.103 265.244,380.117 264.116,380.119 263.619 C 380.130 261.200,381.916 256.774,383.769 254.571 C 386.881 250.873,386.918 239.004,383.826 236.133 C 382.713 235.099,380.896 232.819,379.789 231.065 C 378.298 228.703,376.679 227.392,373.538 226.003 C 371.207 224.972,368.722 223.423,368.015 222.560 C 366.983 221.301,365.003 220.767,357.944 219.846 C 348.161 218.569,343.937 217.589,341.561 216.045 C 337.140 213.174,323.013 211.438,316.099 212.916 M281.198 311.791 C 280.577 312.412,280.521 318.368,281.122 319.934 C 281.605 321.192,287.159 320.880,288.910 319.497 C 290.344 318.364,290.146 312.317,288.656 311.745 C 287.031 311.122,281.836 311.154,281.198 311.791 " stroke="none" fill="#ffffff" fill-rule="evenodd"></path><path id="path1" d="M221.033 56.549 C 219.140 56.896,215.326 57.880,212.559 58.735 C 209.791 59.591,203.768 60.908,199.175 61.662 C 194.145 62.488,190.090 63.585,188.981 64.418 C 187.968 65.179,185.215 66.348,182.862 67.015 C 177.928 68.415,165.524 74.278,160.883 77.405 C 159.140 78.580,157.345 79.541,156.895 79.541 C 156.444 79.541,154.946 80.526,153.564 81.730 C 152.182 82.933,149.960 84.477,148.625 85.160 C 147.291 85.843,144.655 87.698,142.768 89.282 C 140.882 90.865,137.565 93.537,135.398 95.220 C 133.230 96.902,130.875 98.909,130.164 99.678 C 129.454 100.448,127.620 102.341,126.090 103.885 C 115.406 114.667,109.172 123.680,111.222 125.381 C 111.895 125.940,132.648 126.132,178.278 126.002 C 252.662 125.789,246.830 125.286,249.325 132.129 C 251.049 136.857,256.895 143.694,261.581 146.463 C 266.869 149.587,267.214 151.067,267.549 172.053 L 267.848 190.822 265.795 192.734 L 263.742 194.646 244.517 194.887 C 224.654 195.136,216.933 194.466,213.427 192.189 C 208.378 188.910,202.845 187.998,184.704 187.459 C 173.590 187.128,166.514 186.603,165.486 186.034 C 164.591 185.538,160.460 184.403,156.308 183.512 C 152.155 182.620,146.348 180.943,143.403 179.785 C 140.459 178.626,136.329 177.258,134.226 176.744 C 132.122 176.230,129.235 175.126,127.809 174.292 C 126.383 173.457,123.132 171.928,120.585 170.892 C 118.037 169.857,115.246 168.364,114.382 167.575 C 113.518 166.785,110.918 165.598,108.604 164.938 C 106.291 164.278,103.193 162.838,101.721 161.739 C 96.014 157.479,90.249 157.068,90.249 160.921 C 90.249 161.414,89.598 163.093,88.804 164.652 C 88.009 166.211,86.586 171.877,85.641 177.242 C 84.697 182.608,83.257 188.708,82.442 190.799 C 78.795 200.155,79.099 231.230,82.946 242.409 C 84.025 245.542,85.421 251.540,86.048 255.736 C 86.676 259.932,87.739 264.206,88.412 265.232 C 89.085 266.259,90.462 269.529,91.472 272.499 C 92.482 275.468,93.771 278.612,94.337 279.484 C 94.903 280.357,96.132 283.136,97.069 285.660 C 98.006 288.184,99.397 290.937,100.160 291.778 C 100.924 292.620,102.322 294.857,103.267 296.750 C 104.212 298.642,105.972 301.322,107.177 302.703 C 108.383 304.085,109.369 305.527,109.369 305.907 C 109.369 306.288,110.751 308.195,112.439 310.147 C 114.128 312.098,115.996 314.635,116.590 315.784 C 119.000 320.444,143.125 342.559,149.249 345.723 C 150.240 346.235,151.844 347.376,152.813 348.260 C 156.475 351.597,174.004 360.492,182.476 363.311 C 185.330 364.261,188.719 365.652,190.008 366.403 C 191.297 367.154,196.998 368.522,202.677 369.443 C 208.356 370.363,214.508 371.765,216.350 372.557 C 222.563 375.229,227.225 373.400,228.679 367.721 C 230.607 360.191,231.003 359.526,237.110 353.586 C 241.609 349.210,245.405 346.422,249.040 344.825 C 251.093 343.923,253.717 342.398,254.871 341.436 C 256.143 340.375,259.307 339.190,262.902 338.428 C 266.164 337.736,270.415 336.521,272.347 335.728 C 274.569 334.816,279.443 333.995,285.612 333.494 C 306.164 331.825,312.283 329.165,315.380 320.552 C 318.283 312.480,320.844 310.872,333.324 309.286 C 342.963 308.061,346.939 307.082,348.785 305.477 C 352.988 301.825,361.175 301.016,364.551 303.920 L 366.664 305.738 369.885 303.347 C 371.912 301.842,373.758 299.539,374.865 297.132 C 375.833 295.029,377.379 292.372,378.301 291.228 C 379.222 290.085,380.572 287.331,381.300 285.110 C 382.029 282.888,383.256 280.169,384.027 279.067 C 385.852 276.462,386.940 273.544,387.827 268.873 C 388.222 266.792,389.258 264.331,390.128 263.405 C 391.379 262.073,391.852 260.142,392.388 254.187 C 393.083 246.448,393.593 244.162,395.728 239.197 C 396.561 237.259,397.454 236.329,398.481 236.329 C 399.958 236.329,400.000 235.773,400.000 216.061 C 400.000 196.583,399.943 195.793,398.531 195.793 C 397.520 195.793,396.905 195.076,396.556 193.490 C 394.791 185.450,376.079 184.864,360.003 192.345 C 352.062 196.041,313.146 196.517,308.382 192.976 C 305.528 190.855,304.602 184.325,305.722 174.228 C 306.183 170.080,306.275 165.595,305.931 164.071 C 305.593 162.571,305.607 160.232,305.962 158.874 C 306.317 157.516,307.023 154.743,307.531 152.712 C 308.212 149.989,309.156 148.483,311.127 146.976 C 316.800 142.640,319.860 139.576,321.263 136.826 C 326.910 125.757,325.728 126.222,348.615 126.063 C 369.061 125.921,370.012 125.703,366.911 121.883 C 365.935 120.679,364.546 118.757,363.826 117.612 C 358.738 109.522,340.410 91.874,331.627 86.606 C 330.408 85.875,328.343 84.376,327.038 83.274 C 325.733 82.172,322.477 80.107,319.802 78.685 C 304.024 70.298,300.587 68.612,297.132 67.566 C 295.029 66.929,291.931 65.616,290.249 64.646 C 288.202 63.468,284.374 62.473,278.685 61.641 C 274.007 60.957,267.640 59.491,264.535 58.384 C 258.479 56.224,229.468 55.000,221.033 56.549 M295.201 88.650 C 299.787 90.202,302.248 91.508,303.614 93.115 C 304.676 94.365,306.284 95.773,307.188 96.245 C 308.164 96.755,309.866 99.515,311.379 103.045 C 316.697 115.449,314.057 126.569,303.410 136.602 L 298.454 141.274 297.989 155.340 C 297.733 163.077,297.361 186.788,297.161 208.031 C 296.961 229.273,296.567 247.796,296.285 249.191 C 294.788 256.603,275.539 256.613,274.203 249.203 C 273.485 245.221,273.105 226.366,272.858 182.409 C 272.610 138.407,272.794 140.249,268.176 135.665 C 260.363 127.909,259.273 125.273,259.273 114.130 C 259.273 100.593,267.770 88.959,277.849 88.695 C 278.359 88.681,279.444 88.165,280.261 87.547 C 282.538 85.825,288.053 86.232,295.201 88.650 M261.057 208.869 C 265.788 212.003,267.405 214.194,268.021 218.305 C 268.834 223.726,265.819 231.740,262.966 231.740 C 262.620 231.740,260.069 232.812,257.296 234.121 C 251.495 236.863,248.276 236.771,242.924 233.713 C 237.584 230.662,228.613 229.264,222.704 230.562 C 218.931 231.390,213.149 238.800,213.788 241.988 C 214.591 245.996,214.989 247.036,215.719 247.036 C 216.106 247.036,217.324 248.399,218.426 250.065 C 220.092 252.582,221.160 253.294,224.747 254.281 C 237.672 257.836,239.421 263.754,228.726 267.741 C 226.388 268.613,223.786 269.948,222.945 270.707 C 222.103 271.465,220.038 272.945,218.356 273.995 C 216.673 275.045,214.012 277.123,212.443 278.613 L 209.590 281.323 205.721 280.302 C 202.987 279.581,200.964 278.366,198.824 276.161 C 197.158 274.444,195.474 273.040,195.081 273.040 C 194.688 273.040,194.156 272.376,193.899 271.564 C 193.641 270.752,192.223 268.916,190.748 267.483 C 188.838 265.628,187.728 263.586,186.893 260.388 C 186.248 257.918,185.009 254.506,184.138 252.805 C 181.670 247.982,182.043 242.440,185.302 235.511 C 187.909 229.970,194.105 222.562,196.133 222.562 C 196.657 222.562,197.715 221.867,198.484 221.018 C 200.707 218.561,217.968 213.473,229.631 211.837 C 232.684 211.408,236.902 210.229,239.006 209.216 C 244.351 206.642,244.412 206.629,251.303 206.561 C 256.982 206.506,257.771 206.692,261.057 208.869 M333.073 208.449 C 337.119 210.601,343.460 212.214,351.052 213.023 C 353.786 213.315,357.228 214.064,358.700 214.688 C 360.172 215.313,363.477 216.419,366.043 217.147 C 374.092 219.429,384.109 227.213,387.773 234.034 C 390.555 239.213,389.577 260.358,386.491 261.764 C 385.437 262.244,383.767 264.232,382.779 266.181 C 378.028 275.557,359.346 287.984,343.620 292.228 C 340.346 293.112,336.979 294.262,336.138 294.783 C 332.046 297.320,325.039 298.221,291.778 300.492 C 279.478 301.332,263.098 304.829,263.098 306.616 C 263.098 306.927,261.945 308.534,260.536 310.187 C 256.981 314.359,255.897 317.970,256.986 322.015 C 258.208 326.554,253.701 330.199,241.767 334.322 C 237.550 335.779,233.900 338.403,227.680 344.448 C 220.898 351.039,216.673 349.155,209.069 336.146 C 203.770 327.078,203.386 307.184,208.398 301.338 C 208.939 300.707,210.145 298.642,211.077 296.750 C 213.093 292.657,224.350 281.481,229.350 278.608 C 231.296 277.491,233.683 275.972,234.656 275.234 C 235.629 274.496,237.694 273.493,239.245 273.004 C 240.796 272.516,245.006 270.783,248.601 269.153 C 257.574 265.084,271.949 263.074,297.514 262.315 C 314.254 261.817,328.754 260.695,333.078 259.563 C 350.715 254.945,356.243 251.790,357.977 245.352 C 360.346 236.553,353.247 228.567,344.168 229.819 C 338.149 230.649,329.624 233.233,327.344 234.919 C 321.990 238.877,307.824 232.393,303.940 224.207 C 298.553 212.854,319.772 201.377,333.073 208.449 M290.847 308.499 C 301.151 312.860,292.247 329.068,281.085 326.267 C 276.366 325.083,274.170 313.761,277.975 310.235 C 281.017 307.415,286.530 306.671,290.847 308.499 M395.541 346.089 C 394.710 347.146,393.614 349.813,393.105 352.017 C 392.597 354.220,391.408 357.400,390.463 359.082 C 389.518 360.765,387.973 364.718,387.030 367.868 C 386.086 371.017,384.658 374.516,383.855 375.643 C 381.745 378.607,381.093 382.409,382.696 382.409 C 383.439 382.409,383.939 381.779,383.939 380.842 C 383.939 379.979,384.464 378.259,385.106 377.018 C 386.407 374.501,389.848 365.463,393.224 355.694 C 395.724 348.460,396.501 347.228,398.564 347.228 C 399.490 347.228,400.000 346.684,400.000 345.698 C 400.000 343.511,397.389 343.740,395.541 346.089 " stroke="none" fill="#8cc63e" fill-rule="evenodd"></path><path id="path2" d="M211.239 53.559 C 208.586 53.922,204.853 55.092,202.943 56.160 C 200.600 57.469,197.337 58.367,192.924 58.915 C 186.183 59.753,184.277 60.398,181.644 62.734 C 180.803 63.480,178.050 64.508,175.526 65.018 C 170.541 66.026,168.184 67.013,167.330 68.449 C 167.028 68.956,165.135 69.991,163.123 70.748 C 161.111 71.505,158.173 73.277,156.594 74.686 C 155.016 76.094,153.221 77.247,152.606 77.247 C 151.991 77.247,150.357 78.233,148.975 79.438 C 147.593 80.644,145.005 82.369,143.223 83.272 C 141.442 84.175,139.421 85.774,138.732 86.825 C 138.044 87.876,136.330 89.282,134.925 89.948 C 133.520 90.615,132.170 91.791,131.925 92.561 C 131.681 93.331,130.286 94.666,128.826 95.528 C 127.366 96.389,125.839 97.969,125.432 99.039 C 125.026 100.108,123.824 101.314,122.763 101.717 C 121.702 102.121,120.287 103.595,119.621 104.994 C 118.954 106.392,117.671 107.863,116.770 108.262 C 115.869 108.660,114.739 109.783,114.259 110.756 C 113.779 111.729,112.174 113.635,110.693 114.992 C 108.117 117.351,106.324 121.510,106.314 125.145 C 106.304 128.970,104.201 128.845,175.563 129.254 C 251.592 129.690,244.486 128.949,246.732 136.677 C 247.485 139.266,248.592 141.210,249.744 141.964 C 250.746 142.621,251.776 143.821,252.033 144.632 C 252.291 145.443,253.853 146.796,255.505 147.638 C 257.157 148.481,258.509 149.542,258.509 149.995 C 258.509 150.449,259.514 151.759,260.742 152.906 C 263.239 155.239,263.409 156.299,264.286 174.904 C 265.061 191.382,265.059 191.384,242.065 191.488 C 226.710 191.557,225.858 191.483,222.687 189.803 C 220.862 188.837,216.796 187.554,213.651 186.952 C 210.506 186.350,206.320 184.910,204.349 183.751 C 200.793 181.661,200.646 181.643,185.468 181.476 C 166.331 181.266,152.964 179.934,152.964 178.237 C 152.964 177.205,147.313 175.298,141.491 174.366 C 138.240 173.845,135.093 172.862,134.226 172.096 C 132.050 170.175,130.204 169.360,125.563 168.271 C 123.322 167.745,121.301 166.826,121.072 166.229 C 120.507 164.757,117.173 163.119,112.699 162.116 C 110.622 161.651,107.502 160.127,105.612 158.654 C 103.754 157.207,101.676 156.023,100.992 156.023 C 100.309 156.023,98.417 155.343,96.788 154.513 L 93.826 153.003 90.262 154.942 C 85.522 157.522,84.349 159.780,83.088 168.744 C 82.445 173.316,81.408 177.346,80.456 178.967 C 75.464 187.478,75.383 245.238,80.356 250.532 C 81.410 251.654,82.066 253.994,82.604 258.562 C 83.834 268.992,84.108 269.972,86.488 272.462 C 88.738 274.817,88.981 275.420,89.842 280.799 C 90.087 282.332,91.311 284.875,92.563 286.449 C 93.814 288.023,94.837 289.794,94.837 290.384 C 94.837 292.079,97.855 297.546,99.042 298.002 C 99.633 298.229,100.523 299.645,101.020 301.149 C 101.516 302.653,103.096 305.422,104.531 307.302 C 105.966 309.182,107.624 311.656,108.216 312.799 C 108.807 313.942,110.167 315.452,111.238 316.154 C 112.309 316.856,113.699 318.659,114.326 320.160 C 114.956 321.668,116.171 323.075,117.037 323.302 C 117.901 323.528,119.092 324.873,119.685 326.290 C 120.277 327.708,121.602 329.251,122.629 329.719 C 123.656 330.187,124.880 331.411,125.348 332.438 C 125.816 333.465,127.377 334.798,128.818 335.400 C 130.259 336.002,131.646 337.151,131.901 337.954 C 132.156 338.758,133.406 339.846,134.680 340.374 C 135.954 340.902,137.848 342.450,138.889 343.816 C 139.931 345.181,142.482 347.030,144.559 347.923 C 146.635 348.816,148.693 350.218,149.132 351.037 C 149.570 351.857,151.335 352.948,153.053 353.463 C 154.771 353.978,156.689 355.181,157.316 356.138 C 157.942 357.094,160.381 358.597,162.736 359.478 C 165.090 360.359,167.764 361.887,168.678 362.873 C 169.772 364.052,171.880 364.958,174.845 365.520 C 177.323 365.990,180.210 366.879,181.262 367.496 C 185.977 370.260,189.469 371.669,191.638 371.685 C 195.361 371.712,202.767 373.258,204.518 374.374 C 207.733 376.425,214.489 377.820,221.206 377.820 C 229.537 377.820,231.234 376.632,232.122 370.177 C 232.551 367.056,233.417 365.179,235.843 362.107 C 237.583 359.906,239.522 357.445,240.153 356.639 C 240.784 355.832,242.895 354.254,244.843 353.132 C 246.792 352.010,248.585 350.575,248.828 349.944 C 249.070 349.312,250.854 348.396,252.793 347.907 C 254.732 347.419,257.644 345.912,259.265 344.558 C 261.815 342.427,263.000 342.024,268.067 341.565 C 271.288 341.273,277.080 340.156,280.938 339.082 C 284.797 338.007,292.428 336.707,297.897 336.192 C 307.449 335.292,311.281 334.276,311.281 332.643 C 311.281 332.223,312.464 331.181,313.910 330.328 C 316.498 328.801,318.584 326.041,321.604 320.145 C 322.959 317.501,323.667 317.008,327.725 315.889 C 330.249 315.192,333.415 314.043,334.761 313.334 C 336.107 312.626,338.545 312.046,340.179 312.046 C 345.854 312.046,351.788 310.412,353.357 308.416 C 356.008 305.047,362.524 304.690,362.524 307.915 C 362.524 314.437,374.678 309.753,377.105 302.295 C 377.619 300.717,379.013 298.306,380.204 296.937 C 381.394 295.568,382.917 292.561,383.588 290.254 C 384.258 287.948,385.250 285.798,385.791 285.478 C 387.216 284.634,388.362 282.168,389.306 277.917 C 389.762 275.866,390.959 272.983,391.965 271.511 C 394.411 267.935,395.109 265.873,395.722 260.421 C 396.591 252.691,396.931 251.625,398.531 251.625 C 399.882 251.625,400.000 251.010,400.000 243.977 C 400.000 233.062,397.247 233.232,393.780 244.359 C 393.386 245.621,392.760 250.044,392.388 254.187 C 391.852 260.142,391.379 262.073,390.128 263.405 C 389.258 264.331,388.222 266.792,387.827 268.873 C 386.940 273.544,385.852 276.462,384.027 279.067 C 383.256 280.169,382.029 282.888,381.300 285.110 C 380.572 287.331,379.222 290.085,378.301 291.228 C 377.379 292.372,375.833 295.029,374.865 297.132 C 373.758 299.539,371.912 301.842,369.885 303.347 L 366.664 305.738 364.551 303.920 C 361.175 301.016,352.988 301.825,348.785 305.477 C 346.939 307.082,342.963 308.061,333.324 309.286 C 320.844 310.872,318.283 312.480,315.380 320.552 C 312.283 329.165,306.164 331.825,285.612 333.494 C 279.443 333.995,274.569 334.816,272.347 335.728 C 270.415 336.521,266.164 337.736,262.902 338.428 C 259.307 339.190,256.143 340.375,254.871 341.436 C 253.717 342.398,251.093 343.923,249.040 344.825 C 245.405 346.422,241.609 349.210,237.110 353.586 C 231.003 359.526,230.607 360.191,228.679 367.721 C 227.225 373.400,222.563 375.229,216.350 372.557 C 214.508 371.765,208.356 370.363,202.677 369.443 C 196.998 368.522,191.297 367.154,190.008 366.403 C 188.719 365.652,185.330 364.261,182.476 363.311 C 174.004 360.492,156.475 351.597,152.813 348.260 C 151.844 347.376,150.240 346.235,149.249 345.723 C 143.125 342.559,119.000 320.444,116.590 315.784 C 115.996 314.635,114.128 312.098,112.439 310.147 C 110.751 308.195,109.369 306.288,109.369 305.907 C 109.369 305.527,108.383 304.085,107.177 302.703 C 105.972 301.322,104.212 298.642,103.267 296.750 C 102.322 294.857,100.924 292.620,100.160 291.778 C 99.397 290.937,98.006 288.184,97.069 285.660 C 96.132 283.136,94.903 280.357,94.337 279.484 C 93.771 278.612,92.482 275.468,91.472 272.499 C 90.462 269.529,89.085 266.259,88.412 265.232 C 87.739 264.206,86.676 259.932,86.048 255.736 C 85.421 251.540,84.025 245.542,82.946 242.409 C 79.099 231.230,78.795 200.155,82.442 190.799 C 83.257 188.708,84.697 182.608,85.641 177.242 C 86.586 171.877,88.009 166.211,88.804 164.652 C 89.598 163.093,90.249 161.414,90.249 160.921 C 90.249 157.068,96.014 157.479,101.721 161.739 C 103.193 162.838,106.291 164.278,108.604 164.938 C 110.918 165.598,113.518 166.785,114.382 167.575 C 115.246 168.364,118.037 169.857,120.585 170.892 C 123.132 171.928,126.383 173.457,127.809 174.292 C 129.235 175.126,132.122 176.230,134.226 176.744 C 136.329 177.258,140.459 178.626,143.403 179.785 C 146.348 180.943,152.155 182.620,156.308 183.512 C 160.460 184.403,164.591 185.538,165.486 186.034 C 166.514 186.603,173.590 187.128,184.704 187.459 C 202.845 187.998,208.378 188.910,213.427 192.189 C 216.933 194.466,224.654 195.136,244.517 194.887 L 263.742 194.646 265.795 192.734 L 267.848 190.822 267.549 172.053 C 267.214 151.067,266.869 149.587,261.581 146.463 C 256.895 143.694,251.049 136.857,249.325 132.129 C 246.830 125.286,252.662 125.789,178.278 126.002 C 132.648 126.132,111.895 125.940,111.222 125.381 C 109.172 123.680,115.406 114.667,126.090 103.885 C 127.620 102.341,129.454 100.448,130.164 99.678 C 130.875 98.909,133.230 96.902,135.398 95.220 C 137.565 93.537,140.882 90.865,142.768 89.282 C 144.655 87.698,147.291 85.843,148.625 85.160 C 149.960 84.477,152.182 82.933,153.564 81.730 C 154.946 80.526,156.444 79.541,156.895 79.541 C 157.345 79.541,159.140 78.580,160.883 77.405 C 165.524 74.278,177.928 68.415,182.862 67.015 C 185.215 66.348,187.968 65.179,188.981 64.418 C 190.086 63.588,194.120 62.493,199.065 61.681 C 203.599 60.936,210.138 59.414,213.597 58.298 C 223.336 55.155,255.899 55.178,264.535 58.334 C 267.640 59.469,274.007 60.957,278.685 61.641 C 284.374 62.473,288.202 63.468,290.249 64.646 C 291.931 65.616,295.029 66.929,297.132 67.566 C 300.587 68.612,304.024 70.298,319.802 78.685 C 322.477 80.107,325.733 82.172,327.038 83.274 C 328.343 84.376,330.408 85.875,331.627 86.606 C 340.410 91.874,358.738 109.522,363.826 117.612 C 364.546 118.757,365.935 120.679,366.911 121.883 C 370.012 125.703,369.061 125.921,348.615 126.063 C 325.728 126.222,326.910 125.757,321.263 136.826 C 319.860 139.576,316.800 142.640,311.127 146.976 C 309.156 148.483,308.212 149.989,307.531 152.712 C 307.023 154.743,306.317 157.516,305.962 158.874 C 305.607 160.232,305.593 162.571,305.931 164.071 C 306.275 165.595,306.183 170.080,305.722 174.228 C 304.602 184.325,305.528 190.855,308.382 192.976 C 313.146 196.517,352.062 196.041,360.003 192.345 C 376.079 184.864,394.791 185.450,396.556 193.490 C 397.701 198.700,400.000 196.408,400.000 190.057 C 400.000 185.669,399.750 184.321,398.936 184.321 C 398.351 184.321,396.372 183.640,394.539 182.808 C 388.613 180.119,372.637 180.712,369.385 183.741 C 368.404 184.656,365.036 185.885,361.130 186.756 C 357.501 187.564,352.974 188.957,351.071 189.851 C 346.886 191.816,320.307 192.283,314.867 190.488 C 310.782 189.139,310.516 187.916,310.516 170.454 C 310.516 152.700,311.009 151.215,318.209 147.266 C 320.933 145.772,328.018 136.026,328.617 132.947 C 329.339 129.238,329.102 129.279,349.951 129.266 C 370.668 129.253,372.467 128.889,372.467 124.699 C 372.467 122.390,369.671 116.524,368.019 115.367 C 367.183 114.781,365.752 113.036,364.839 111.487 C 363.925 109.939,362.508 108.460,361.691 108.200 C 360.873 107.940,359.710 106.546,359.106 105.102 C 358.486 103.617,357.178 102.160,356.097 101.749 C 355.045 101.349,353.645 99.979,352.986 98.706 C 352.322 97.420,350.932 96.174,349.864 95.906 C 348.805 95.640,347.419 94.418,346.784 93.189 C 346.149 91.961,344.443 90.390,342.994 89.699 C 341.545 89.008,340.158 87.809,339.912 87.033 C 339.666 86.258,337.512 84.629,335.124 83.414 C 332.737 82.198,330.371 80.518,329.866 79.679 C 329.362 78.841,327.641 77.736,326.042 77.222 C 324.444 76.709,322.447 75.469,321.606 74.468 C 320.765 73.466,318.264 72.015,316.049 71.244 C 313.833 70.473,311.243 69.111,310.293 68.219 C 309.343 67.326,306.337 66.032,303.614 65.344 C 300.890 64.656,297.973 63.481,297.132 62.734 C 294.316 60.234,292.066 59.531,284.634 58.829 C 279.397 58.333,276.671 57.705,275.270 56.670 C 271.156 53.628,268.200 53.314,241.683 53.103 C 227.591 52.991,213.891 53.196,211.239 53.559 M280.261 87.547 C 279.444 88.165,278.359 88.681,277.849 88.695 C 267.770 88.959,259.273 100.593,259.273 114.130 C 259.273 125.273,260.363 127.909,268.176 135.665 C 272.794 140.249,272.610 138.407,272.858 182.409 C 273.105 226.366,273.485 245.221,274.203 249.203 C 275.539 256.613,294.788 256.603,296.285 249.191 C 296.567 247.796,296.961 229.273,297.161 208.031 C 297.361 186.788,297.733 163.077,297.989 155.340 L 298.454 141.274 303.410 136.602 C 314.057 126.569,316.697 115.449,311.379 103.045 C 309.866 99.515,308.164 96.755,307.188 96.245 C 306.284 95.773,304.676 94.365,303.614 93.115 C 299.755 88.575,283.900 84.795,280.261 87.547 M296.178 93.406 C 297.800 93.817,299.573 94.934,300.256 95.976 C 300.920 96.990,302.599 98.489,303.985 99.307 C 306.218 100.624,306.606 101.360,307.364 105.718 C 309.872 120.119,307.145 129.114,298.948 133.480 C 295.010 135.577,294.691 137.907,294.094 168.977 C 293.791 184.725,293.222 198.455,292.829 199.488 C 292.436 200.521,292.165 203.468,292.226 206.037 C 292.287 208.606,292.096 211.950,291.801 213.469 C 291.507 214.989,291.589 217.405,291.986 218.840 C 292.403 220.351,292.428 222.201,292.044 223.236 C 291.681 224.220,291.275 229.601,291.142 235.194 C 290.841 247.880,289.994 249.789,285.012 248.999 C 279.586 248.138,279.749 248.862,279.468 224.346 C 278.569 145.755,278.486 143.004,276.952 140.844 C 276.158 139.728,274.971 137.522,274.312 135.942 C 273.581 134.189,272.340 132.774,271.128 132.314 C 270.008 131.888,268.687 130.472,268.099 129.068 C 267.525 127.698,266.165 125.805,265.076 124.862 C 262.345 122.493,261.974 106.200,264.619 104.784 C 265.456 104.336,266.636 103.013,267.240 101.844 C 269.100 98.247,274.507 93.384,277.124 92.955 C 284.027 91.822,290.529 91.976,296.178 93.406 M243.977 206.998 C 243.346 207.205,241.109 208.203,239.006 209.216 C 236.902 210.229,232.684 211.408,229.631 211.837 C 217.968 213.473,200.707 218.561,198.484 221.018 C 197.715 221.867,196.657 222.562,196.133 222.562 C 194.105 222.562,187.909 229.970,185.302 235.511 C 182.043 242.440,181.670 247.982,184.138 252.805 C 185.009 254.506,186.248 257.918,186.893 260.388 C 187.728 263.586,188.838 265.628,190.748 267.483 C 192.223 268.916,193.641 270.752,193.899 271.564 C 194.156 272.376,194.688 273.040,195.081 273.040 C 195.474 273.040,197.158 274.444,198.824 276.161 C 200.964 278.366,202.987 279.581,205.721 280.302 L 209.590 281.323 212.443 278.613 C 214.012 277.123,216.673 275.045,218.356 273.995 C 220.038 272.945,222.103 271.465,222.945 270.707 C 223.786 269.948,226.388 268.613,228.726 267.741 C 239.421 263.754,237.672 257.836,224.747 254.281 C 221.160 253.294,220.092 252.582,218.426 250.065 C 217.324 248.399,216.106 247.036,215.719 247.036 C 214.989 247.036,214.591 245.996,213.788 241.988 C 213.149 238.800,218.931 231.390,222.704 230.562 C 228.613 229.264,237.584 230.662,242.924 233.713 C 248.276 236.771,251.495 236.863,257.296 234.121 C 260.069 232.812,262.620 231.740,262.966 231.740 C 265.819 231.740,268.834 223.726,268.021 218.305 C 266.719 209.618,254.092 203.680,243.977 206.998 M314.391 207.342 C 306.852 210.353,301.480 219.023,303.940 224.207 C 307.824 232.393,321.990 238.877,327.344 234.919 C 329.624 233.233,338.149 230.649,344.168 229.819 C 353.247 228.567,360.346 236.553,357.977 245.352 C 356.243 251.790,350.715 254.945,333.078 259.563 C 328.754 260.695,314.254 261.817,297.514 262.315 C 271.949 263.074,257.574 265.084,248.601 269.153 C 245.006 270.783,240.796 272.516,239.245 273.004 C 237.694 273.493,235.629 274.496,234.656 275.234 C 233.683 275.972,231.296 277.491,229.350 278.608 C 224.350 281.481,213.093 292.657,211.077 296.750 C 210.145 298.642,208.939 300.707,208.398 301.338 C 203.386 307.184,203.770 327.078,209.069 336.146 C 216.673 349.155,220.898 351.039,227.680 344.448 C 233.900 338.403,237.550 335.779,241.767 334.322 C 253.701 330.199,258.208 326.554,256.986 322.015 C 255.897 317.970,256.981 314.359,260.536 310.187 C 261.945 308.534,263.098 306.927,263.098 306.616 C 263.098 304.829,279.478 301.332,291.778 300.492 C 325.039 298.221,332.046 297.320,336.138 294.783 C 336.979 294.262,340.346 293.112,343.620 292.228 C 359.346 287.984,378.028 275.557,382.779 266.181 C 383.767 264.232,385.437 262.244,386.491 261.764 C 389.577 260.358,390.555 239.213,387.773 234.034 C 384.109 227.213,374.092 219.429,366.043 217.147 C 363.477 216.419,360.172 215.313,358.700 214.688 C 357.228 214.064,353.786 213.315,351.052 213.023 C 343.460 212.214,337.119 210.601,333.073 208.449 C 329.119 206.347,318.462 205.715,314.391 207.342 M257.870 213.288 C 264.181 215.237,264.596 215.719,264.617 221.121 C 264.650 229.967,244.223 233.407,235.457 226.031 C 232.012 223.133,222.478 223.488,219.885 226.612 C 219.465 227.119,217.683 228.509,215.926 229.702 C 209.639 233.969,207.924 246.304,213.009 250.678 C 214.254 251.749,215.632 253.347,216.070 254.228 C 216.509 255.110,218.236 256.279,219.907 256.827 C 222.599 257.708,228.681 262.608,228.681 263.896 C 228.681 264.164,226.709 264.825,224.300 265.364 C 221.088 266.083,219.303 267.008,217.608 268.833 C 216.337 270.202,214.513 271.562,213.555 271.856 C 212.597 272.151,211.239 273.312,210.536 274.437 C 209.833 275.561,209.191 276.588,209.110 276.718 C 208.720 277.336,203.469 274.528,201.691 272.750 C 200.589 271.648,199.171 270.746,198.541 270.746 C 197.911 270.746,196.724 269.283,195.904 267.495 C 195.084 265.707,193.509 263.233,192.405 261.997 C 190.217 259.549,190.106 259.200,188.937 251.090 C 187.145 238.660,191.676 227.728,199.358 225.946 C 200.553 225.669,202.856 224.405,204.478 223.137 C 207.080 221.102,208.460 220.705,216.248 219.751 C 221.705 219.083,226.270 218.073,228.214 217.104 C 229.943 216.242,235.484 214.683,240.529 213.639 C 245.573 212.595,249.858 211.582,250.051 211.389 C 250.458 210.983,250.198 210.920,257.870 213.288 M332.383 213.431 C 336.551 214.298,340.681 215.474,341.561 216.045 C 343.937 217.589,348.161 218.569,357.944 219.846 C 365.003 220.767,366.983 221.301,368.015 222.560 C 368.722 223.423,371.207 224.972,373.538 226.003 C 376.679 227.392,378.298 228.703,379.789 231.065 C 380.896 232.819,382.713 235.099,383.826 236.133 C 386.918 239.004,386.881 250.873,383.769 254.571 C 381.916 256.774,380.130 261.200,380.119 263.619 C 380.117 264.116,379.103 265.244,377.866 266.125 C 376.628 267.005,375.417 268.355,375.173 269.124 C 374.929 269.893,373.600 271.130,372.221 271.873 C 370.841 272.616,369.143 274.215,368.448 275.426 C 367.683 276.759,366.546 277.629,365.568 277.629 C 363.529 277.629,361.275 278.807,358.188 281.488 C 356.796 282.696,354.354 283.827,352.452 284.143 C 348.702 284.766,345.211 286.356,344.784 287.635 C 344.627 288.108,341.476 288.980,337.782 289.571 C 334.088 290.162,329.110 291.352,326.719 292.214 C 319.083 294.966,316.649 295.254,295.602 295.888 C 275.577 296.491,272.141 296.934,269.316 299.279 C 268.712 299.780,266.463 300.718,264.319 301.364 C 261.456 302.227,260.015 303.185,258.891 304.973 C 258.050 306.312,256.811 307.597,256.139 307.829 C 254.216 308.493,253.288 311.394,252.707 318.551 C 252.406 322.253,251.796 325.304,251.323 325.459 C 250.858 325.612,248.976 326.122,247.140 326.593 C 245.303 327.063,243.021 328.229,242.067 329.183 C 241.113 330.137,238.657 331.382,236.610 331.950 C 233.060 332.936,231.165 334.388,223.606 341.916 L 221.208 344.304 217.691 340.787 C 215.757 338.853,213.969 336.327,213.717 335.174 C 212.907 331.461,211.643 328.530,210.115 326.819 C 207.518 323.910,207.775 312.566,210.527 308.673 C 211.689 307.029,212.860 304.309,213.129 302.629 C 213.686 299.148,231.043 280.692,233.768 280.684 C 235.103 280.681,236.635 279.838,241.112 276.645 C 242.166 275.894,245.221 274.928,247.900 274.499 C 251.540 273.916,253.353 273.168,255.067 271.544 C 257.974 268.790,262.360 268.388,293.308 268.037 C 316.501 267.775,324.301 267.070,326.552 265.032 C 327.456 264.215,331.135 263.435,337.741 262.662 C 346.854 261.596,351.052 260.300,351.052 258.554 C 351.052 258.178,352.631 257.267,354.561 256.530 C 356.500 255.789,358.623 254.308,359.308 253.216 C 359.989 252.131,361.335 250.270,362.300 249.081 C 364.791 246.009,364.799 238.902,362.313 235.814 C 361.356 234.625,360.106 232.728,359.534 231.599 C 358.963 230.470,357.464 229.119,356.204 228.597 C 354.944 228.075,353.113 226.848,352.135 225.870 C 349.448 223.184,341.715 223.307,337.596 226.101 C 331.202 230.441,313.196 231.158,311.281 227.150 C 310.980 226.519,310.187 224.949,309.519 223.661 C 307.075 218.949,309.967 214.227,316.099 212.916 C 322.054 211.643,324.097 211.708,332.383 213.431 M281.708 307.988 C 277.637 308.782,275.867 311.753,276.294 317.073 C 277.115 327.303,283.660 329.739,291.583 322.765 C 300.587 314.840,294.359 305.522,281.708 307.988 M288.656 311.745 C 290.146 312.317,290.344 318.364,288.910 319.497 C 287.159 320.880,281.605 321.192,281.122 319.934 C 280.521 318.368,280.577 312.412,281.198 311.791 C 281.836 311.154,287.031 311.122,288.656 311.745 M395.245 340.153 C 393.337 342.341,392.545 344.309,391.672 349.029 C 391.108 352.081,390.135 354.309,388.606 356.051 C 386.821 358.084,386.257 359.614,385.832 363.581 C 385.455 367.100,384.853 368.963,383.776 369.937 C 380.586 372.824,377.957 382.409,380.355 382.409 C 380.970 382.409,381.661 381.372,381.925 380.050 C 382.184 378.753,383.053 376.770,383.855 375.643 C 384.658 374.516,386.086 371.017,387.030 367.868 C 387.973 364.718,389.518 360.765,390.463 359.082 C 391.408 357.400,392.597 354.220,393.105 352.017 C 394.171 347.398,396.402 344.168,398.526 344.168 C 399.701 344.168,400.000 343.625,400.000 341.491 C 400.000 338.412,397.402 337.680,395.245 340.153 " stroke="none" fill="#d5e9b7" fill-rule="evenodd"></path><path id="path3" d="M396.590 353.920 C 396.307 354.656,395.573 357.647,394.959 360.566 C 394.339 363.510,393.037 366.928,392.036 368.241 C 390.421 370.358,387.763 378.498,387.763 381.324 C 387.763 382.171,389.107 382.409,393.881 382.409 L 400.000 382.409 400.000 367.495 C 400.000 353.372,399.923 352.581,398.552 352.581 C 397.756 352.581,396.873 353.184,396.590 353.920 " stroke="none" fill="#0357a0" fill-rule="evenodd"></path><path id="path4" d="M396.290 348.237 C 395.829 348.793,394.449 352.148,393.224 355.694 C 389.848 365.463,386.407 374.501,385.106 377.018 C 383.367 380.379,383.583 382.409,385.679 382.409 C 387.219 382.409,387.572 381.742,388.753 376.602 C 389.507 373.323,390.905 369.724,391.965 368.334 C 393.039 366.926,394.319 363.605,394.959 360.566 C 396.451 353.476,396.853 352.581,398.552 352.581 C 399.697 352.581,400.000 352.021,400.000 349.904 C 400.000 347.035,398.024 346.147,396.290 348.237 " stroke="none" fill="#5a8fb5" fill-rule="evenodd"></path></g></svg>